<svg xmlns="http://www.w3.org/2000/svg" width="56.922" height="40.033" viewBox="0 0 56.922 40.033">
  <g id="Layer_2" data-name="Layer 2" transform="translate(-12.2 -21.173)">
    <path id="Path_355" data-name="Path 355" d="M63.159,27.009a19.985,19.985,0,0,0-26.584-1.468H22.435a1.01,1.01,0,0,0,0,2.02H34.42a19.9,19.9,0,0,0-2.875,3.979H15.661a1.01,1.01,0,0,0,0,2.02H30.576a20.086,20.086,0,0,0-1.394,9.481H22.448a1.01,1.01,0,0,0,0,2.02h7.036a19.8,19.8,0,0,0,1.165,3.8H15.661a1.01,1.01,0,0,0,0,2.02H31.639a19.527,19.527,0,0,0,2.774,3.838H13.21a1.01,1.01,0,1,0,0,2.02h22.7a1.064,1.064,0,0,0,.505-.135,19.965,19.965,0,0,0,26.745-29.6ZM61.731,53.815a17.938,17.938,0,1,1,0-25.378,17.938,17.938,0,0,1,0,25.378Z"/>
    <path id="Path_356" data-name="Path 356" d="M59.632,28.49A15.022,15.022,0,1,0,74.655,43.512,15.022,15.022,0,0,0,59.632,28.49Zm1.01,27.951V55.262a1.01,1.01,0,1,0-2.02,0v1.178A13.009,13.009,0,0,1,46.684,44.522h1.2a1.01,1.01,0,0,0,0-2.02h-1.2A13,13,0,0,1,58.622,30.564v1.2a1.01,1.01,0,0,0,2.02,0v-1.2A13,13,0,0,1,72.581,42.5h-1.2a1.01,1.01,0,0,0,0,2.02h1.2A13.009,13.009,0,0,1,60.642,56.441Z" transform="translate(-10.587 -2.39)"/>
    <path id="Path_357" data-name="Path 357" d="M73.105,48.747,68.87,46.053l4.4-8.753" transform="translate(-18.512 -5.268)"/>
  </g>
</svg>
