<?xml version="1.0" encoding="UTF-8" standalone="no"?> <svg xmlns="http://www.w3.org/2000/svg" viewBox="0 0 223.39 193.12"><title>ito-heart-love</title><g id="Livello_2" data-name="Livello 2"><g id="Livello_1-2" data-name="Livello 1"><path d="M.15,63.23a61.61,61.61,0,0,1,51-62.15C75-3.06,94.7,4.9,110,23.71c1.84,2.27,1.78,2.3,3.55,0C124,10,137.81,2.14,155,.33c27.3-2.87,52,13.14,62.72,36.54,6.73,14.74,7.12,29.86,3.09,45.3-3.17,12.12-9,23-16.06,33.23-13.55,19.59-31,35.26-50.1,49.11-12.25,8.86-24.53,17.7-37.35,25.73-6.2,3.88-4.84,3.78-10.71.08-17.73-11.18-35.42-22.43-51.4-36.12-14.4-12.33-27.9-25.47-38.77-41.14C7.42,100.12,3.1,85.44.21,70.23-.22,68,.15,65.56.15,63.23Zm98.27,92.53a2.67,2.67,0,0,0,0-.63l-.67-1.5a78.66,78.66,0,0,1-7.33-32.92c0-4.54,0-9.08,0-13.61a19.11,19.11,0,0,0-.67-4.25c-.83-3.67-3.09-6.41-5.58-9-9.09-9.37-14.33-20.88-18.49-33a12,12,0,0,1-.81-4c0-.57.13-1.13.8-1.29s.86.3,1.14.69.7,1,1,1.53c5.3,7.87,10.75,15.63,17.26,22.58,7,7.46,15.12,12.94,25.45,14.54a71.12,71.12,0,0,0,26.8-1.18c11.4-2.57,21.46-7.94,30.74-14.91.64-.48,1.34-1.59,2.27-.72s-.19,1.69-.58,2.49a3.43,3.43,0,0,1-.36.49c-5.66,7.58-13.08,13.09-21,18-4.47,2.74-9.49,4-14.41,5.47-7.34,2.21-13.24,6.1-16,13.63a45.57,45.57,0,0,0-2.63,13.91c-.31,8.61,1.68,16.91,3.55,25.22.4,1.74,1.15,1.26,2.15.63,15.37-9.74,30-20.48,42.54-33.73,9.17-9.67,16.88-20.28,21-33.17,5.77-18.11.5-35.9-13.88-46.71-19.1-14.34-47.2-8.68-57.2,13.76-.53,1.17-1,2.35-1.64,3.67a7,7,0,0,1-1.7-3,37.13,37.13,0,0,0-41.4-21.63,40.13,40.13,0,0,0-31.6,47c2,10.58,6.58,19.9,12.82,28.51,9.08,12.54,20.51,22.71,32.71,32.08C87.73,148.52,92.91,152.12,98.42,155.76Z"/><path d="M112,70.1c6.06,0,11.11,3.68,12.41,8.93a10.51,10.51,0,0,1-11,13.07c-6-.39-11.57-6.09-11.86-12S105.4,70.05,112,70.1Z"/></g></g></svg>