<svg xmlns="http://www.w3.org/2000/svg" width="42.8" height="39.998" viewBox="0 0 42.8 39.998">
  <g id="_4ad948bcfd18837e0efe3393cbba3d48" data-name="4ad948bcfd18837e0efe3393cbba3d48" transform="translate(0 -2.1)">
    <path id="Path_362" data-name="Path 362" d="M38.5,18.163a3.16,3.16,0,0,0-2.147-2.314A14.557,14.557,0,0,0,21.835,2.1h-.856A14.562,14.562,0,0,0,6.453,15.843a3.16,3.16,0,0,0-2.147,2.314A7.374,7.374,0,0,0,4.3,31.565a3.161,3.161,0,0,0,6.246-.689V18.845a3.16,3.16,0,0,0-2.167-2.989A12.628,12.628,0,0,1,20.972,4.013h.856a12.628,12.628,0,0,1,12.586,11.85,3.163,3.163,0,0,0-2.167,2.989V30.883a3.167,3.167,0,0,0,2.14,2.983,5.28,5.28,0,0,1-5.216,4.5H26.382a2.763,2.763,0,0,0-2.668-2.06H19.735a2.777,2.777,0,0,0-2.775,2.775v.241A2.777,2.777,0,0,0,19.735,42.1h3.979a2.773,2.773,0,0,0,2.595-1.812h2.862a7.207,7.207,0,0,0,7.149-6.38,3.158,3.158,0,0,0,2.173-2.321A7.384,7.384,0,0,0,38.5,18.163ZM4.22,29.3a5.438,5.438,0,0,1,.007-8.888L4.22,29.3ZM8.634,18.845V30.876a1.244,1.244,0,1,1-2.488,0V18.839a1.244,1.244,0,1,1,2.488.007ZM24.576,39.322a.853.853,0,0,1-.856.856H19.741a.853.853,0,0,1-.856-.856v-.241a.853.853,0,0,1,.856-.856H23.72a.853.853,0,0,1,.856.856Zm12.084-8.486v.053a1.244,1.244,0,1,1-2.488,0V18.859a1.244,1.244,0,0,1,2.488,0V30.836Zm1.919-1.525V20.424a5.442,5.442,0,0,1,0,8.888Z"/>
    <path id="Path_363" data-name="Path 363" d="M36.715,23.552a9.342,9.342,0,1,0-9.342,9.342A9.351,9.351,0,0,0,36.715,23.552Zm-16.765,0a7.423,7.423,0,1,1,7.416,7.43,7.432,7.432,0,0,1-7.416-7.43Z" transform="translate(-5.973 -4.011)"/>
    <path id="Path_364" data-name="Path 364" d="M29.986,22.451a1.809,1.809,0,0,1,.662.107,1.345,1.345,0,0,1,.468.3,1.326,1.326,0,0,1,.281.468,1.882,1.882,0,0,1,.094.6,1.844,1.844,0,0,1-.08.548,1.173,1.173,0,0,1-.247.448,1.279,1.279,0,0,1-.428.308,1.476,1.476,0,0,1-.622.114h-.094a.989.989,0,0,0-.261.033.365.365,0,0,0-.181.114.49.49,0,0,0-.1.214,1.4,1.4,0,0,0-.02.354l.06,1.6a.24.24,0,0,0,.047.12.215.215,0,0,0,.127.074.994.994,0,0,0,.241.04c.1.007.227.013.374.013a1.888,1.888,0,0,0,.542-.06c.127-.04.187-.1.194-.181l.054-1.324a2.69,2.69,0,0,0,.889-.247,2.234,2.234,0,0,0,.689-.522,2.273,2.273,0,0,0,.448-.776,2.978,2.978,0,0,0,.16-1,3.207,3.207,0,0,0-.167-1.016,2.257,2.257,0,0,0-.535-.856,2.619,2.619,0,0,0-.93-.6A3.8,3.8,0,0,0,30.28,21.1a4.387,4.387,0,0,0-1.264.187,3.478,3.478,0,0,0-.455.167.83.83,0,0,0-.254.16.331.331,0,0,0-.087.174,2.13,2.13,0,0,0-.02.348,2.974,2.974,0,0,0,.02.381,1.1,1.1,0,0,0,.047.227.254.254,0,0,0,.067.114.141.141,0,0,0,.087.033.439.439,0,0,0,.194-.067c.087-.047.187-.094.314-.147a3.653,3.653,0,0,1,.455-.147,1.823,1.823,0,0,1,.6-.08Zm1.1,7.9a.61.61,0,0,0,.154-.308,2.25,2.25,0,0,0,.047-.468,2.372,2.372,0,0,0-.04-.475.662.662,0,0,0-.154-.314.6.6,0,0,0-.3-.167,1.767,1.767,0,0,0-.455-.054,1.8,1.8,0,0,0-.468.054.668.668,0,0,0-.294.167.633.633,0,0,0-.154.314,2.32,2.32,0,0,0-.047.475,1.871,1.871,0,0,0,.047.468.638.638,0,0,0,.154.308.668.668,0,0,0,.294.167,1.8,1.8,0,0,0,.468.054,1.73,1.73,0,0,0,.455-.054A.609.609,0,0,0,31.082,30.355Z" transform="translate(-9.341 -6.294)"/>
  </g>
</svg>
