<svg xmlns="http://www.w3.org/2000/svg" width="50.034" height="40.027" viewBox="0 0 50.034 40.027">
  <g id="_8261320474c31d332928e10900f12a5b" data-name="8261320474c31d332928e10900f12a5b" transform="translate(-2 -4)">
    <path id="Path_360" data-name="Path 360" d="M7.126,14.25a1.876,1.876,0,0,0,0,3.753h15.01a1.876,1.876,0,0,0,0-3.753Z" transform="translate(4.881 15.393)"/>
    <path id="Path_361" data-name="Path 361" d="M9.505,4A7.505,7.505,0,0,0,2,11.505V36.522a7.505,7.505,0,0,0,7.505,7.505H44.529a7.505,7.505,0,0,0,7.505-7.505V11.505A7.505,7.505,0,0,0,44.529,4ZM44.529,7.753H9.505a3.753,3.753,0,0,0-3.753,3.753v3.127H48.282V11.505a3.753,3.753,0,0,0-3.753-3.753ZM5.753,36.522V18.385H48.282V36.522a3.753,3.753,0,0,1-3.753,3.753H9.505A3.753,3.753,0,0,1,5.753,36.522Z" transform="translate(0)" fill-rule="evenodd"/>
  </g>
</svg>
